<svg width="18" height="18" viewBox="0 0 18 18" fill="none" xmlns="http://www.w3.org/2000/svg">
<path d="M5.54623 2.33746L8.25836 0.707826L7.98674 0.255787C7.83683 0.00631794 7.51273 -0.0746469 7.26312 0.0753648L5.455 1.16176C5.20549 1.31167 5.1246 1.63577 5.27458 1.88538L5.54623 2.33746Z" fill="#00A651"/>
<path d="M16.4566 12.3073C16.3054 12.0584 15.9809 11.9789 15.732 12.1301L12.7891 13.9178C12.929 14.2535 13.02 14.6139 13.0541 14.9908L16.2794 13.0315C16.5286 12.8803 16.6077 12.5562 16.4566 12.3073Z" fill="#00A651"/>
<path d="M13.5977 16.9453H12.0156V15.3281C12.0156 13.8742 10.8328 12.6914 9.37891 12.6914C7.92502 12.6914 6.74219 13.8742 6.74219 15.3281V16.9453H5.16016C4.86892 16.9453 4.63281 17.1814 4.63281 17.4727C4.63281 17.7639 4.86892 18 5.16016 18H13.5977C13.8889 18 14.125 17.7639 14.125 17.4727C14.125 17.1814 13.8889 16.9453 13.5977 16.9453ZM9.37891 15.8555C9.08767 15.8555 8.85156 15.6194 8.85156 15.3281C8.85156 15.0369 9.08767 14.8008 9.37891 14.8008C9.67014 14.8008 9.90625 15.0369 9.90625 15.3281C9.90625 15.6194 9.67014 15.8555 9.37891 15.8555Z" fill="#00A651"/>
<path d="M5.45822 4.23667L6.01453 5.16251L7.13932 4.48238C8.47262 3.67621 10.1915 4.12547 10.9827 5.41866C11.797 6.74978 11.3702 8.48629 10.0313 9.28806L8.90037 9.96538L9.26068 10.565C9.41129 10.8156 9.7368 10.8953 9.98585 10.7445C10.0025 10.7345 10.179 10.6284 10.4455 10.4683L11.2546 11.8147C11.4048 12.0648 11.7293 12.1448 11.9782 11.9952L13.7863 10.9088C14.0359 10.7588 14.1167 10.4348 13.9667 10.1851L13.1576 8.83866C13.4276 8.67649 13.6005 8.5726 13.6005 8.5726C13.8501 8.42259 13.9309 8.09862 13.7809 7.84898C13.7683 7.82799 9.97499 1.51382 9.96114 1.49368C9.80328 1.2639 9.49384 1.19668 9.25488 1.34029L5.63864 3.51305C5.389 3.66306 5.30821 3.98703 5.45822 4.23667Z" fill="#00A651"/>
<path d="M5.6875 15.3282C5.6875 14.2962 6.11335 13.362 6.7983 12.6915H6.21484C5.34251 12.6915 4.63281 11.9818 4.63281 11.1095C4.63281 10.2371 5.34251 9.52744 6.21463 9.52744C6.21488 9.52744 7.4316 9.52797 7.43153 9.52797C7.52698 9.52793 7.6206 9.50206 7.70248 9.45301L9.48866 8.38328C10.3239 7.88308 10.5903 6.79963 10.0823 5.96914C9.58134 5.15031 8.50559 4.88836 7.6843 5.38494L6.06346 6.36507C3.51621 6.44505 1.46875 8.54257 1.46875 11.1095C1.46875 13.5482 3.31776 15.5629 5.6875 15.8261V15.3282Z" fill="#00A651"/>
</svg>
