<svg width="14" height="16" viewBox="0 0 14 16" fill="none" xmlns="http://www.w3.org/2000/svg">
<path d="M2.7072 15.6H11.2128C12.7056 15.6 13.92 14.3856 13.92 12.8928V4.8C13.92 4.536 13.704 4.32 13.44 4.32H10.56V3.6C10.56 1.6152 8.9448 0 6.96 0C4.9752 0 3.36 1.6152 3.36 3.6V4.32H0.48C0.216 4.32 0 4.536 0 4.8V12.8928C0 14.3856 1.2144 15.6 2.7072 15.6ZM4.32 3.6C4.32 2.1432 5.5032 0.96 6.96 0.96C8.4168 0.96 9.6 2.1432 9.6 3.6V4.32H4.32V3.6ZM0.96 5.28H3.36V6.48C3.36 6.744 3.576 6.96 3.84 6.96C4.104 6.96 4.32 6.744 4.32 6.48V5.28H9.6V6.48C9.6 6.744 9.816 6.96 10.08 6.96C10.344 6.96 10.56 6.744 10.56 6.48V5.28H12.96V12.8928C12.96 13.8552 12.1752 14.64 11.2128 14.64H2.7072C1.7448 14.64 0.96 13.8552 0.96 12.8928V5.28Z" fill="black"/>
</svg>
